<?xml version="1.0" encoding="iso-8859-1"?>
<!DOCTYPE svg PUBLIC "-//W3C//DTD SVG 1.1 Basic//EN" "http://www.w3.org/Graphics/SVG/1.1/DTD/svg11-basic.dtd">
<svg version="1.1" baseProfile="basic"
   xmlns="http://www.w3.org/2000/svg" xmlns:xlink="http://www.w3.org/1999/xlink" x="0px" y="0px" width="128px" height="128px"
   viewBox="0 0 128 128" xml:space="preserve">
   <path transform="matrix(0.128,0,0,0.128,2,0)" style="fill:#000000" d="M 849 964 L 813 964 L 696 964 L 696 1000 L 813 1000 L 849 1000 L 966 1000 L 966 964 z M 35 929 C 35 805 132 777 303 738 C 311 736 316 729 316 720 L 316 683 C 343 691 371 696 400 696 C 428 696 456 691 483 683 L 483 720 C 483 729 489 736 497 738 C 667 777 763 805 764 928 L 800 928 C 799 775 671 741 519 706 L 519 668 C 538 659 556 648 573 634 C 744 623 745 597 745 585 C 745 580 743 575 740 572 C 711 543 703 425 705 357 L 705 351 L 705 348 C 705 344 705 341 704 337 L 704 323 C 703 317 703 310 702 305 C 686 137 596 62 523 29 C 489 12 452 2 415 0 C 405 0 400 0 400 0 L 399 0 C 399 0 394 0 385 0 C 347 2 310 12 277 29 C 203 62 113 137 97 304 C 96 310 96 316 95 323 L 95 337 C 95 341 94 344 94 348 C 94 349 94 350 95 351 L 94 358 C 96 425 88 543 59 572 C 56 575 54 580 54 585 C 54 597 55 623 226 634 C 243 648 262 659 281 668 L 281 706 C 128 741 0 775 0 929 L 0 982 C 0 991 8 1000 17 1000 L 660 1000 L 660 964 L 35 964 L 35 929 z M 244 602 C 241 600 238 599 234 598 C 151 593 114 585 98 580 C 133 516 131 375 130 357 L 130 351 C 130 351 130 348 130 348 C 130 345 130 342 131 339 L 131 325 C 132 319 132 314 133 308 C 147 158 227 91 292 62 C 322 47 354 38 388 36 C 395 36 399 35 400 35 C 400 35 404 36 412 36 C 445 38 477 47 508 62 C 572 91 652 158 666 308 C 667 314 667 319 668 325 L 669 340 C 669 342 669 345 669 349 L 669 351 L 669 357 C 668 374 666 516 702 580 C 686 585 648 593 565 598 C 562 599 558 600 555 602 C 509 640 455 660 400 660 C 344 660 290 640 244 602 z"/>
</svg>