<?xml version="1.0" encoding="iso-8859-1"?>
<!DOCTYPE svg PUBLIC "-//W3C//DTD SVG 1.1 Basic//EN" "http://www.w3.org/Graphics/SVG/1.1/DTD/svg11-basic.dtd">
<svg version="1.1" baseProfile="basic"
   xmlns="http://www.w3.org/2000/svg" xmlns:xlink="http://www.w3.org/1999/xlink" x="0px" y="0px" width="128px" height="128px"
   viewBox="0 0 128 128" xml:space="preserve">
   <path transform="matrix(0.128,0,0,0.128,2,0)" style="fill:#000000" d="M 849 964 L 814 964 L 697 964 L 697 1000 L 814 1000 L 849 1000 L 966 1000 L 966 964 z M 35 923 C 35 803 116 781 269 748 C 290 744 311 740 333 734 L 347 731 L 347 646 C 377 661 408 670 442 670 C 475 670 506 661 536 646 L 536 731 L 550 734 C 572 740 593 744 614 748 C 767 781 848 803 848 923 L 848 928 L 849 928 L 884 928 L 884 923 C 884 769 762 743 621 713 C 605 710 589 706 572 703 L 572 623 C 633 576 679 496 694 400 C 698 380 708 329 712 282 C 714 243 708 213 703 195 C 722 182 729 161 730 148 L 732 126 L 711 128 C 710 128 708 129 704 129 C 689 129 677 125 675 120 C 630 13 521 0 444 0 C 443 0 442 0 440 0 L 438 0 C 432 0 284 1 242 96 C 214 110 132 174 190 406 L 190 406 C 206 499 251 577 311 623 L 311 703 C 295 706 278 710 262 713 C 121 743 0 769 0 923 L 0 1000 L 661 1000 L 661 964 L 35 964 L 35 923 z M 225 399 L 223 383 L 222 383 C 169 162 260 127 261 126 L 269 124 L 272 115 C 302 37 437 35 438 35 L 440 35 L 442 36 C 552 36 614 67 642 134 C 649 149 664 160 686 163 C 683 166 680 168 675 169 L 656 175 L 664 194 C 665 194 680 228 676 279 C 673 325 662 378 658 394 C 638 533 546 634 442 634 C 338 634 247 535 225 399 z"/>
</svg>